<mxfile host="app.diagrams.net" modified="2024-12-04T12:27:02.504Z" agent="Mozilla/5.0 (Macintosh; Intel Mac OS X 10_15_7) AppleWebKit/537.36 (KHTML, like Gecko) Chrome/131.0.0.0 Safari/537.36" etag="sqo1ELQ1caVaM1H6mHHI" version="21.6.6" type="github">
  <diagram name="第 1 页" id="N7r7OU1YnOGUv65oeLJI">
    <mxGraphModel dx="1242" dy="716" grid="1" gridSize="10" guides="1" tooltips="1" connect="1" arrows="1" fold="1" page="1" pageScale="1" pageWidth="827" pageHeight="1169" math="0" shadow="0">
      <root>
        <mxCell id="0" />
        <mxCell id="1" parent="0" />
        <mxCell id="U11lHf7SrJ4D87NI97nm-4" value="" style="edgeStyle=orthogonalEdgeStyle;rounded=0;orthogonalLoop=1;jettySize=auto;html=1;fillColor=#f5f5f5;strokeColor=#666666;" edge="1" parent="1" source="U11lHf7SrJ4D87NI97nm-1" target="U11lHf7SrJ4D87NI97nm-2">
          <mxGeometry relative="1" as="geometry" />
        </mxCell>
        <mxCell id="U11lHf7SrJ4D87NI97nm-1" value="1" style="ellipse;whiteSpace=wrap;html=1;aspect=fixed;" vertex="1" parent="1">
          <mxGeometry x="90" y="160" width="80" height="80" as="geometry" />
        </mxCell>
        <mxCell id="U11lHf7SrJ4D87NI97nm-10" value="" style="edgeStyle=orthogonalEdgeStyle;rounded=0;orthogonalLoop=1;jettySize=auto;html=1;fillColor=#f5f5f5;strokeColor=#666666;" edge="1" parent="1" source="U11lHf7SrJ4D87NI97nm-2" target="U11lHf7SrJ4D87NI97nm-5">
          <mxGeometry relative="1" as="geometry" />
        </mxCell>
        <mxCell id="U11lHf7SrJ4D87NI97nm-2" value="2" style="ellipse;whiteSpace=wrap;html=1;aspect=fixed;" vertex="1" parent="1">
          <mxGeometry x="200" y="160" width="80" height="80" as="geometry" />
        </mxCell>
        <mxCell id="U11lHf7SrJ4D87NI97nm-11" value="" style="edgeStyle=orthogonalEdgeStyle;rounded=0;orthogonalLoop=1;jettySize=auto;html=1;fillColor=#f5f5f5;strokeColor=#666666;" edge="1" parent="1" source="U11lHf7SrJ4D87NI97nm-5" target="U11lHf7SrJ4D87NI97nm-6">
          <mxGeometry relative="1" as="geometry" />
        </mxCell>
        <mxCell id="U11lHf7SrJ4D87NI97nm-5" value="3" style="ellipse;whiteSpace=wrap;html=1;aspect=fixed;" vertex="1" parent="1">
          <mxGeometry x="310" y="160" width="80" height="80" as="geometry" />
        </mxCell>
        <mxCell id="U11lHf7SrJ4D87NI97nm-12" value="" style="edgeStyle=orthogonalEdgeStyle;rounded=0;orthogonalLoop=1;jettySize=auto;html=1;fillColor=#f5f5f5;strokeColor=#666666;" edge="1" parent="1" source="U11lHf7SrJ4D87NI97nm-6" target="U11lHf7SrJ4D87NI97nm-7">
          <mxGeometry relative="1" as="geometry" />
        </mxCell>
        <mxCell id="U11lHf7SrJ4D87NI97nm-6" value="4" style="ellipse;whiteSpace=wrap;html=1;aspect=fixed;" vertex="1" parent="1">
          <mxGeometry x="420" y="160" width="80" height="80" as="geometry" />
        </mxCell>
        <mxCell id="U11lHf7SrJ4D87NI97nm-13" value="" style="edgeStyle=orthogonalEdgeStyle;rounded=0;orthogonalLoop=1;jettySize=auto;html=1;" edge="1" parent="1" source="U11lHf7SrJ4D87NI97nm-7" target="U11lHf7SrJ4D87NI97nm-8">
          <mxGeometry relative="1" as="geometry" />
        </mxCell>
        <mxCell id="U11lHf7SrJ4D87NI97nm-7" value="5" style="ellipse;whiteSpace=wrap;html=1;aspect=fixed;" vertex="1" parent="1">
          <mxGeometry x="530" y="160" width="80" height="80" as="geometry" />
        </mxCell>
        <mxCell id="U11lHf7SrJ4D87NI97nm-14" value="" style="edgeStyle=orthogonalEdgeStyle;rounded=0;orthogonalLoop=1;jettySize=auto;html=1;" edge="1" parent="1" source="U11lHf7SrJ4D87NI97nm-8" target="U11lHf7SrJ4D87NI97nm-9">
          <mxGeometry relative="1" as="geometry" />
        </mxCell>
        <mxCell id="U11lHf7SrJ4D87NI97nm-8" value="6" style="ellipse;whiteSpace=wrap;html=1;aspect=fixed;" vertex="1" parent="1">
          <mxGeometry x="530" y="320" width="80" height="80" as="geometry" />
        </mxCell>
        <mxCell id="U11lHf7SrJ4D87NI97nm-15" style="edgeStyle=orthogonalEdgeStyle;rounded=0;orthogonalLoop=1;jettySize=auto;html=1;entryX=0.5;entryY=1;entryDx=0;entryDy=0;" edge="1" parent="1" source="U11lHf7SrJ4D87NI97nm-9" target="U11lHf7SrJ4D87NI97nm-25">
          <mxGeometry relative="1" as="geometry">
            <mxPoint x="350" y="500" as="targetPoint" />
            <Array as="points">
              <mxPoint x="430" y="520" />
              <mxPoint x="430" y="520" />
            </Array>
          </mxGeometry>
        </mxCell>
        <mxCell id="U11lHf7SrJ4D87NI97nm-9" value="7" style="ellipse;whiteSpace=wrap;html=1;aspect=fixed;" vertex="1" parent="1">
          <mxGeometry x="530" y="480" width="80" height="80" as="geometry" />
        </mxCell>
        <mxCell id="U11lHf7SrJ4D87NI97nm-16" value="x = 4&lt;br&gt;y = 8 = 2x =&amp;nbsp;" style="rounded=0;whiteSpace=wrap;html=1;" vertex="1" parent="1">
          <mxGeometry x="40" y="380" width="120" height="60" as="geometry" />
        </mxCell>
        <mxCell id="U11lHf7SrJ4D87NI97nm-26" style="edgeStyle=orthogonalEdgeStyle;rounded=0;orthogonalLoop=1;jettySize=auto;html=1;entryX=0.388;entryY=0.975;entryDx=0;entryDy=0;entryPerimeter=0;" edge="1" parent="1" source="U11lHf7SrJ4D87NI97nm-25" target="U11lHf7SrJ4D87NI97nm-5">
          <mxGeometry relative="1" as="geometry">
            <Array as="points">
              <mxPoint x="350" y="238" />
            </Array>
          </mxGeometry>
        </mxCell>
        <mxCell id="U11lHf7SrJ4D87NI97nm-25" value="8" style="ellipse;whiteSpace=wrap;html=1;aspect=fixed;" vertex="1" parent="1">
          <mxGeometry x="320" y="460" width="80" height="80" as="geometry" />
        </mxCell>
      </root>
    </mxGraphModel>
  </diagram>
</mxfile>
